<svg width="140" height="19" viewBox="0 0 140 19" fill="none" xmlns="http://www.w3.org/2000/svg">
<path d="M13.3635 9.336H16.9155V16.152C16.0035 16.84 14.9475 17.368 13.7475 17.736C12.5475 18.104 11.3395 18.288 10.1235 18.288C8.37953 18.288 6.81153 17.92 5.41953 17.184C4.02753 16.432 2.93153 15.4 2.13153 14.088C1.34753 12.76 0.955531 11.264 0.955531 9.6C0.955531 7.936 1.34753 6.448 2.13153 5.136C2.93153 3.808 4.03553 2.776 5.44353 2.04C6.85153 1.288 8.43553 0.912 10.1955 0.912C11.6675 0.912 13.0035 1.16 14.2035 1.656C15.4035 2.152 16.4115 2.872 17.2275 3.816L14.7315 6.12C13.5315 4.856 12.0835 4.224 10.3875 4.224C9.31553 4.224 8.36353 4.448 7.53153 4.896C6.69953 5.344 6.05153 5.976 5.58753 6.792C5.12353 7.608 4.89153 8.544 4.89153 9.6C4.89153 10.64 5.12353 11.568 5.58753 12.384C6.05153 13.2 6.69153 13.84 7.50753 14.304C8.33953 14.752 9.28353 14.976 10.3395 14.976C11.4595 14.976 12.4675 14.736 13.3635 14.256V9.336ZM26.6472 11.4L24.3912 13.752V18H20.5272V1.2H24.3912V9.048L31.8312 1.2H36.1512L29.1912 8.688L36.5592 18H32.0232L26.6472 11.4ZM40.6243 4.368H35.2483V1.2H49.8883V4.368H44.5123V18H40.6243V4.368ZM62.2005 14.4H54.4005L52.9125 18H48.9285L56.4165 1.2H60.2565L67.7685 18H63.6885L62.2005 14.4ZM60.9765 11.448L58.3125 5.016L55.6485 11.448H60.9765ZM76.624 18.288C74.224 18.288 72.352 17.624 71.008 16.296C69.68 14.968 69.016 13.072 69.016 10.608V1.2H72.904V10.464C72.904 13.472 74.152 14.976 76.648 14.976C77.864 14.976 78.792 14.616 79.432 13.896C80.072 13.16 80.392 12.016 80.392 10.464V1.2H84.232V10.608C84.232 13.072 83.56 14.968 82.216 16.296C80.888 17.624 79.024 18.288 76.624 18.288ZM98.7865 14.4H90.9865L89.4985 18H85.5145L93.0025 1.2H96.8425L104.354 18H100.274L98.7865 14.4ZM97.5625 11.448L94.8985 5.016L92.2345 11.448H97.5625ZM113.369 1.2C114.857 1.2 116.145 1.448 117.233 1.944C118.337 2.44 119.185 3.144 119.777 4.056C120.369 4.968 120.665 6.048 120.665 7.296C120.665 8.528 120.369 9.608 119.777 10.536C119.185 11.448 118.337 12.152 117.233 12.648C116.145 13.128 114.857 13.368 113.369 13.368H109.985V18H106.097V1.2H113.369ZM113.153 10.2C114.321 10.2 115.209 9.952 115.817 9.456C116.425 8.944 116.729 8.224 116.729 7.296C116.729 6.352 116.425 5.632 115.817 5.136C115.209 4.624 114.321 4.368 113.153 4.368H109.985V10.2H113.153ZM133.661 14.4H125.861L124.373 18H120.389L127.877 1.2H131.717L139.229 18H135.149L133.661 14.4ZM132.437 11.448L129.773 5.016L127.109 11.448H132.437Z" fill="#FF5678"/>
</svg>
